HIERARCHY
ROOT Hips
{
	OFFSET 0.000000 0.000000 0.000000
	CHANNELS 6 Xposition Yposition Zposition Xrotation Yrotation Zrotation
	JOINT LeftUpLeg_virtual
	{
		OFFSET 0.000000 0.000000 0.000000
		CHANNELS 3 Xrotation Yrotation Zrotation
		JOINT LeftUpLeg
		{
			OFFSET 13.026900 -6.336304 -1.092800
			CHANNELS 3 Xrotation Yrotation Zrotation
			JOINT LeftLeg
			{
				OFFSET 0.524474 -46.096886 9.782700
				CHANNELS 3 Xrotation Yrotation Zrotation
				JOINT LeftFoot
				{
					OFFSET -0.524474 -53.427422 -12.948200
					CHANNELS 3 Xrotation Yrotation Zrotation
					JOINT LeftToeBase
					{
						OFFSET 0.192200 -14.009700 16.364100
						CHANNELS 3 Xrotation Yrotation Zrotation
						JOINT LeftToe_End
						{
							OFFSET -1.784700 -0.561700 9.474800
							CHANNELS 3 Xrotation Yrotation Zrotation
							End Site
							{
								OFFSET 0 0 0
							}
						}
					}
				}
			}
		}
	}
	JOINT RightUpLeg_virtual
	{
		OFFSET 0.000000 0.000000 0.000000
		CHANNELS 3 Xrotation Yrotation Zrotation
		JOINT RightUpLeg
		{
			OFFSET -12.883000 -6.336304 -1.092800
			CHANNELS 3 Xrotation Yrotation Zrotation
			JOINT RightLeg
			{
				OFFSET -0.524587 -46.096825 9.782800
				CHANNELS 3 Xrotation Yrotation Zrotation
				JOINT RightFoot
				{
					OFFSET 0.524587 -53.427383 -12.948300
					CHANNELS 3 Xrotation Yrotation Zrotation
					JOINT RightToeBase
					{
						OFFSET -0.192200 -14.009700 16.364100
						CHANNELS 3 Xrotation Yrotation Zrotation
						JOINT RightToe_End
						{
							OFFSET 1.784700 -0.561700 9.474800
							CHANNELS 3 Xrotation Yrotation Zrotation
							End Site
							{
								OFFSET 0 0 0
							}
						}
					}
				}
			}
		}
	}
	JOINT Spine_virtual
	{
		OFFSET 0.000000 0.000000 0.000000
		CHANNELS 3 Xrotation Yrotation Zrotation
		JOINT Spine
		{
			OFFSET 0.072000 7.257294 -0.789700
			CHANNELS 3 Xrotation Yrotation Zrotation
			JOINT Spine1
			{
				OFFSET 0.000000 12.508769 -0.658067
				CHANNELS 3 Xrotation Yrotation Zrotation
				JOINT Spine1_split
				{
					OFFSET 0.000000 12.508769 -0.658067
					CHANNELS 3 Xrotation Yrotation Zrotation
					JOINT Spine2
					{
						OFFSET 0.000000 12.508769 -0.658067
						CHANNELS 3 Xrotation Yrotation Zrotation
						JOINT Neck_virtual
						{
							OFFSET 0.000000 0.000000 0.000000
							CHANNELS 3 Xrotation Yrotation Zrotation
							JOINT Neck
							{
								OFFSET 0.000000 14.033295 7.520400
								CHANNELS 3 Xrotation Yrotation Zrotation
								JOINT Head
								{
									OFFSET 0.000000 8.198502 5.703100
									CHANNELS 3 Xrotation Yrotation Zrotation
									JOINT HeadTop_End
									{
										OFFSET 0.000000 17.760803 13.332701
										CHANNELS 3 Xrotation Yrotation Zrotation
										End Site
										{
											OFFSET 0 0 0
										}
									}
								}
							}
						}
						JOINT LeftShoulder_virtual
						{
							OFFSET 0.000000 0.000000 0.000000
							CHANNELS 3 Xrotation Yrotation Zrotation
							JOINT LeftShoulder
							{
								OFFSET 6.292450 5.785301 -0.669000
								CHANNELS 3 Xrotation Yrotation Zrotation
								JOINT LeftShoulder_split
								{
									OFFSET 6.292450 5.785301 -0.669000
									CHANNELS 3 Xrotation Yrotation Zrotation
									JOINT LeftArm
									{
										OFFSET 13.907140 -6.093903 1.965100
										CHANNELS 3 Xrotation Yrotation Zrotation
										JOINT LeftForeArm
										{
											OFFSET 34.140198 0.000000 0.000000
											CHANNELS 3 Xrotation Yrotation Zrotation
											JOINT LeftHand
											{
												OFFSET 40.960209 0.000000 0.000000
												CHANNELS 3 Xrotation Yrotation Zrotation
												End Site
												{
													OFFSET 0 0 0
												}
											}
										}
									}
								}
							}
						}
						JOINT RightShoulder_virtual
						{
							OFFSET 0.000000 0.000000 0.000000
							CHANNELS 3 Xrotation Yrotation Zrotation
							JOINT RightShoulder
							{
								OFFSET -6.292450 5.785301 -0.669000
								CHANNELS 3 Xrotation Yrotation Zrotation
								JOINT RightShoulder_split
								{
									OFFSET -6.292450 5.785301 -0.669000
									CHANNELS 3 Xrotation Yrotation Zrotation
									JOINT RightArm
									{
										OFFSET -13.907140 -6.093903 1.965100
										CHANNELS 3 Xrotation Yrotation Zrotation
										JOINT RightForeArm
										{
											OFFSET -34.140198 0.000000 0.000000
											CHANNELS 3 Xrotation Yrotation Zrotation
											JOINT RightHand
											{
												OFFSET -40.960209 0.000000 0.000000
												CHANNELS 3 Xrotation Yrotation Zrotation
												End Site
												{
													OFFSET 0 0 0
												}
											}
										}
									}
								}
							}
						}
					}
				}
			}
		}
	}
}
MOTION
Frames: 9
Frame Time: 0.03333333
1.055450 94.062912 -1.016966 0.000000 0.000000 0.000000 -8.057323 -48.175127 -3.599529 -31.458465 4.248954 22.552871 54.743765 -0.755603 3.098238 -9.744873 -7.635845 -12.600143 -5.031666 0.721642 1.775846 0.000000 0.000000 0.000000 -8.787837 -46.540834 -2.998588 -18.209108 -10.533419 -29.238708 57.926008 3.351231 -1.781259 -22.653190 -12.061894 22.309276 0.116241 0.264346 -0.380337 0.000000 0.000000 0.000000 -8.558975 -46.937128 -4.216697 12.014497 7.883917 -2.408325 0.882316 1.261665 -0.505481 0.065567 -0.770674 1.294405 0.000000 0.000000 0.000000 0.775466 1.878345 -0.523541 1.850883 13.951355 5.325806 6.189694 16.846785 -2.686696 0.000000 0.000000 0.000000 2.502405 1.225880 0.093326 0.661809 3.545087 -6.390853 -3.481030 -3.547525 -4.240621 -50.371235 5.084342 -45.133050 175.158644 -72.205802 177.083460 0.000000 0.000000 0.000000 2.078417 1.441470 -0.497064 4.182460 11.694555 -5.292714 -1.787512 -5.511346 -1.929238 -51.569147 20.250695 85.974262 179.785482 73.316589 -177.714637 0.000000 0.000000 0.000000 
1.425297 93.347893 -0.081364 0.000000 0.000000 0.000000 -8.246774 -48.975349 -3.478473 -32.808445 3.531105 22.715604 57.231859 -0.826463 2.861842 -9.646492 -7.402235 -13.275772 -7.005188 0.547769 1.893730 0.000000 0.000000 0.000000 -9.204552 -47.592451 -2.963189 -18.811700 -10.607542 -30.057077 59.911284 4.309479 -1.949246 -23.554071 -12.261388 22.465266 0.883921 0.195767 -0.257820 0.000000 0.000000 0.000000 -8.313779 -47.395413 -3.911115 12.497878 8.097363 -2.543393 1.069355 1.143661 -0.468843 0.424759 -0.741726 1.545812 0.000000 0.000000 0.000000 0.837428 1.764838 -0.507900 1.806530 13.937826 5.358531 6.293013 16.906738 -2.546836 0.000000 0.000000 0.000000 2.410702 1.175241 0.152192 0.550244 3.358345 -6.786582 -1.265453 -5.512147 -3.538523 -52.288138 5.008789 -45.906688 171.585485 -72.191602 173.191795 0.000000 0.000000 0.000000 2.032611 1.357176 -0.463524 4.280512 12.283186 -5.212354 -1.369466 -5.868614 -1.236020 -52.733930 22.232783 86.293143 -179.550661 73.570372 -178.238267 0.000000 0.000000 0.000000 
1.659689 91.715279 1.112570 0.000000 0.000000 0.000000 -8.171374 -50.116677 -2.957070 -35.446855 2.010742 23.659741 62.594709 -2.654062 2.287800 -9.977761 -8.931722 -14.938658 -10.175312 -0.107283 3.136213 0.000000 0.000000 0.000000 -9.216424 -48.771522 -2.549147 -19.579007 -9.356994 -31.304587 62.067671 5.726351 -2.756484 -23.910266 -12.635200 23.063314 0.110723 0.084155 0.278929 0.000000 0.000000 0.000000 -8.087472 -48.577398 -3.408808 13.618205 8.540198 -2.566109 1.019708 1.028755 -0.590259 0.612356 -0.742940 1.362632 0.000000 0.000000 0.000000 0.561096 1.613874 -0.646548 1.342099 14.038457 5.509530 7.046182 17.127896 -2.134752 0.000000 0.000000 0.000000 2.180553 1.103771 0.046417 0.429735 3.236912 -7.506647 0.433687 -6.319338 -2.501901 -52.831062 4.648380 -46.394176 166.811156 -72.467795 168.164831 0.000000 0.000000 0.000000 1.624032 1.245716 -0.541679 4.320872 12.907728 -4.927940 -1.493841 -5.309346 -0.926268 -53.624150 23.224624 85.870067 -179.043478 74.285513 -179.259968 0.000000 0.000000 0.000000 
1.877230 89.316795 2.476276 0.000000 0.000000 0.000000 -7.901496 -51.494442 -2.196010 -39.136349 -0.094102 25.171294 69.613554 -5.883020 1.716088 -10.803646 -11.561145 -17.044225 -12.538673 -1.054651 4.829738 0.000000 0.000000 0.000000 -8.751747 -49.916757 -1.746790 -20.636233 -7.043751 -32.948344 63.947107 7.346421 -4.013014 -23.914937 -12.976049 23.751146 -1.487457 -0.070377 1.006695 0.000000 0.000000 0.000000 -8.002251 -50.507063 -2.921859 15.172905 9.114209 -2.436229 0.755748 0.985522 -0.853715 0.663552 -0.211523 0.962552 0.000000 0.000000 0.000000 -0.020921 1.530218 -0.889649 0.474102 14.230787 5.687801 8.118554 17.746373 -1.728030 0.000000 0.000000 0.000000 1.743310 1.061288 -0.188818 0.357772 3.438940 -8.268676 1.636237 -5.696468 -1.296898 -51.324777 5.316553 -45.891003 163.908872 -71.970987 165.109031 0.000000 0.000000 0.000000 0.875521 1.170198 -0.748048 4.280289 13.438832 -4.652759 -1.724128 -3.966236 -0.878128 -54.255457 22.939119 84.957349 -177.776000 75.159033 178.392247 0.000000 0.000000 0.000000 
2.311176 86.329506 4.228958 0.000000 0.000000 0.000000 -7.350363 -53.129630 -1.202010 -42.984368 -2.493147 26.872712 76.097958 -9.105978 1.140848 -12.585533 -14.016011 -17.939354 -13.234307 -1.990582 6.130464 0.000000 0.000000 0.000000 -7.989032 -50.983892 -0.717914 -22.301544 -4.060262 -35.017144 65.320412 8.909169 -5.358351 -23.676383 -13.004750 24.219810 -2.255390 -0.176687 1.569967 0.000000 0.000000 0.000000 -8.018663 -52.839610 -2.484370 16.923465 9.624865 -2.118778 0.293251 1.032110 -1.220314 0.692049 0.253301 0.519864 0.000000 0.000000 0.000000 -0.768911 1.558218 -1.187012 -0.571732 14.576310 5.746150 9.072314 18.999373 -1.625217 0.000000 0.000000 0.000000 1.110929 1.089020 -0.508862 0.334614 4.057302 -8.910855 2.267456 -4.188254 0.331319 -47.779902 7.989480 -44.160769 165.989429 -69.452178 167.062875 0.000000 0.000000 0.000000 -0.097748 1.146021 -1.072634 4.108535 13.672378 -4.687582 -2.001732 -2.757094 -0.816072 -54.876632 22.352279 84.260970 -175.424420 75.986196 174.611382 0.000000 0.000000 0.000000 
3.125383 83.145630 6.717358 0.000000 0.000000 0.000000 -6.667442 -54.894128 -0.103563 -46.839638 -5.384839 28.857792 81.098798 -12.091405 1.081470 -13.033842 -15.646524 -18.849679 -13.008346 -2.523190 6.530491 0.000000 0.000000 0.000000 -7.005218 -52.353817 0.480401 -24.982513 -1.056659 -37.730006 66.146735 10.280074 -6.391078 -22.759997 -12.511265 24.602849 -1.892868 -0.147475 1.655448 0.000000 0.000000 0.000000 -7.984586 -55.032798 -2.059337 18.495102 9.862630 -1.667796 -0.271260 1.146000 -1.578304 0.433889 0.222907 0.400603 0.000000 0.000000 0.000000 -1.479855 1.676793 -1.443434 -1.558492 15.104736 5.526168 9.667930 21.105983 -2.129300 0.000000 0.000000 0.000000 0.391435 1.186514 -0.821684 0.366992 5.117927 -9.286189 2.524751 -2.612118 2.061990 -43.980742 12.222206 -41.797821 171.498742 -64.683333 172.306589 0.000000 0.000000 0.000000 -1.067687 1.179575 -1.433232 3.874895 13.412943 -5.257177 -2.058761 -2.194272 -0.533583 -55.692628 23.046180 84.826312 -171.841590 76.851704 169.711800 0.000000 0.000000 0.000000 
4.318749 80.218658 10.093346 0.000000 0.000000 0.000000 -5.967728 -57.011282 0.894423 -50.242387 -8.619489 31.086196 83.466257 -14.588408 1.609151 -10.074705 -16.294536 -20.985090 -13.053428 -2.485057 5.707527 0.000000 0.000000 0.000000 -6.269126 -54.162560 1.460648 -28.314727 1.497008 -41.177640 65.836747 11.676900 -6.982785 -20.733787 -11.263755 25.632814 -1.411239 -0.004293 1.077157 0.000000 0.000000 0.000000 -7.899866 -56.979713 -1.757633 19.619607 9.448149 -1.246277 -0.827915 1.231034 -1.792922 0.161947 0.008185 0.817935 0.000000 0.000000 0.000000 -1.906560 1.759557 -1.548837 -2.343656 15.868396 5.046020 9.751820 23.985468 -3.307984 0.000000 0.000000 0.000000 -0.255794 1.267605 -1.043949 0.362535 6.452732 -9.407103 2.409011 -1.804554 3.372677 -41.510212 16.752340 -39.573235 176.654100 -59.442617 177.176145 0.000000 0.000000 0.000000 -1.797832 1.190916 -1.665235 3.532169 12.615283 -6.230268 -1.588931 -2.539435 0.373134 -56.936686 26.451157 86.602468 -167.937563 77.416882 165.075550 0.000000 0.000000 0.000000 
5.727557 77.735443 14.141966 0.000000 0.000000 0.000000 -5.352015 -59.200890 1.618664 -51.985997 -11.087496 33.625957 81.584991 -15.572280 1.823109 -5.074594 -15.445780 -23.026641 -13.641727 -1.936565 3.745097 0.000000 0.000000 0.000000 -5.980845 -56.182336 1.946854 -30.964885 3.324460 -45.056330 63.806732 13.198385 -7.152551 -17.617681 -9.062149 27.350355 -1.564293 0.244460 0.040144 0.000000 0.000000 0.000000 -7.829979 -58.466132 -1.706140 20.090872 8.174831 -1.028906 -1.243725 1.151930 -1.719680 0.002966 -0.677570 1.264263 0.000000 0.000000 0.000000 -1.945869 1.652601 -1.426615 -2.753287 16.865515 4.381876 9.239248 27.497285 -5.036126 0.000000 0.000000 0.000000 -0.622321 1.228457 -1.064985 0.342114 7.881889 -9.338542 2.172564 -1.775939 3.992042 -41.369267 19.602641 -37.808963 -179.813541 -57.648340 -179.652990 0.000000 0.000000 0.000000 -2.072371 1.080363 -1.652138 3.047627 11.335531 -7.244514 -1.232283 -3.224917 1.608850 -58.716609 33.058665 89.358067 -165.523351 77.442884 162.641257 0.000000 0.000000 0.000000 
6.948207 75.730217 18.720451 0.000000 0.000000 0.000000 -4.960615 -61.032426 1.704024 -51.910145 -12.368803 36.281289 75.183075 -14.754330 1.597994 -0.007186 -12.989273 -24.368337 -13.165897 -1.046214 1.174344 0.000000 0.000000 0.000000 -6.094036 -58.157900 1.751734 -31.498999 4.104244 -48.762630 59.434442 14.675365 -6.842802 -13.813279 -6.228159 28.776625 -2.667219 0.555351 -0.861665 0.000000 0.000000 0.000000 -7.632160 -59.289204 -1.938515 19.703511 5.901906 -1.122193 -1.333225 0.870408 -1.272877 0.601584 -1.181216 1.625532 0.000000 0.000000 0.000000 -1.664582 1.295966 -1.019330 -2.845612 17.936215 3.675081 8.202533 31.250031 -7.019762 0.000000 0.000000 0.000000 -0.566867 0.961564 -0.803244 0.257998 8.934227 -8.973221 2.394717 -2.123827 4.267302 -43.939884 19.605672 -36.171080 -177.342337 -62.999056 -177.532094 0.000000 0.000000 0.000000 -1.763038 0.798454 -1.302067 2.480567 9.732238 -8.170850 -1.547719 -3.618839 2.604258 -59.860208 42.066339 91.752062 -165.211839 77.044315 162.875082 0.000000 0.000000 0.000000 
